<?xml version="1.0" encoding="UTF-8" standalone="no"?>
<svg
   fill="none"
   viewBox="0 0 1354.0095 317.16104"
   version="1.1"
   id="svg6"
   sodipodi:docname="maplibre-logo.svg"
   inkscape:export-filename="../../../../Downloads/maplibre-logo-for-light-bg.svg"
   inkscape:export-xdpi="96"
   inkscape:export-ydpi="96"
   xml:space="preserve"
   width="1354.0095"
   height="317.16104"
   xmlns:inkscape="http://www.inkscape.org/namespaces/inkscape"
   xmlns:sodipodi="http://sodipodi.sourceforge.net/DTD/sodipodi-0.dtd"
   xmlns="http://www.w3.org/2000/svg"
   xmlns:svg="http://www.w3.org/2000/svg"><sodipodi:namedview
     id="namedview6"
     pagecolor="#ffffff"
     bordercolor="#000000"
     borderopacity="0.25"
     inkscape:showpageshadow="2"
     inkscape:pageopacity="0.0"
     inkscape:pagecheckerboard="0"
     inkscape:deskcolor="#d1d1d1" /><g
     clip-path="url(#a)"
     id="g5"
     transform="translate(-2.6408115,-1.1519161)"><g
       clip-path="url(#b)"
       id="g4"><path
         fill="#fff"
         d="m 292.72,162.643 -12.175,-27.525 -5.558,27.525 -17.997,90.78 H 227.612 L 267.841,58.894 h 3.176 l 53.463,105.072 15.879,35.201 15.88,-35.201 52.404,-105.072 h 2.911 l 41.817,194.529 h -29.113 l -19.585,-90.78 -5.823,-27.525 -10.586,27.525 -47.111,90.78 h -1.587 z m 238.603,93.427 c -10.939,0 -21.085,-2.559 -30.436,-7.675 -9.175,-5.294 -16.586,-12.704 -22.232,-22.232 -5.47,-9.705 -8.204,-20.997 -8.204,-33.877 0,-12.704 2.381,-23.82 7.145,-33.348 4.941,-9.528 11.91,-16.939 20.909,-22.232 8.999,-5.293 19.585,-7.94 31.76,-7.94 7.057,0 13.674,1.235 19.85,3.705 6.175,2.471 11.38,5.558 15.615,9.264 4.234,3.528 7.058,7.057 8.469,10.586 l 0.529,-20.379 h 27.261 v 121.481 h -26.996 l -0.529,-21.438 c -3,6.352 -8.47,11.998 -16.409,16.939 -7.94,4.764 -16.851,7.146 -26.732,7.146 z m 4.764,-23.82 c 10.058,0 18.527,-3.441 25.408,-10.322 6.881,-7.058 10.322,-16.233 10.322,-27.525 v -1.853 c 0,-7.587 -1.588,-14.38 -4.764,-20.379 -3.176,-5.999 -7.499,-10.675 -12.968,-14.027 -5.47,-3.353 -11.469,-5.029 -17.998,-5.029 -11.292,0 -20.026,3.706 -26.201,11.116 -6.176,7.234 -9.264,16.674 -9.264,28.319 0,11.822 3,21.438 8.999,28.849 6.175,7.234 14.998,10.851 26.466,10.851 z m 104.87,-100.308 h 27.525 v 22.497 c 9.704,-17.115 24.878,-25.673 45.522,-25.673 17.115,0 30.966,5.47 41.552,16.409 10.587,10.763 15.88,26.379 15.88,46.846 0,12.704 -2.646,23.908 -7.94,33.612 -5.116,9.705 -12.174,17.204 -21.173,22.497 -8.822,5.293 -18.703,7.94 -29.642,7.94 -10.234,0 -19.144,-1.765 -26.731,-5.293 -7.411,-3.706 -13.234,-8.911 -17.468,-15.616 l 0.264,82.576 h -27.789 z m 65.107,100.043 c 11.469,0 20.291,-3.617 26.467,-10.851 6.175,-7.411 9.263,-16.85 9.263,-28.319 0,-11.998 -3.088,-21.526 -9.263,-28.584 -5.999,-7.234 -14.822,-10.851 -26.467,-10.851 -6.352,0 -12.351,1.588 -17.997,4.764 -5.47,2.999 -9.881,7.41 -13.233,13.233 -3.176,5.646 -4.764,12.263 -4.764,19.85 v 1.853 c 0,7.587 1.588,14.38 4.764,20.379 3.352,5.822 7.763,10.41 13.233,13.762 5.47,3.176 11.469,4.764 17.997,4.764 z"
         id="path1"
         style="fill:#285daa;fill-opacity:1" /><path
         fill="#82b4fe"
         d="m 802.464,58.895 h 29.907 v 168.062 h 55.844 v 26.466 H 802.464 V 58.894 Z m 114.505,73.047 h 29.642 v 121.481 h -29.642 z m 14.556,-22.761 c -5.47,0 -10.057,-1.853 -13.762,-5.558 -3.706,-3.705 -5.558,-8.293 -5.558,-13.763 0,-4.94 1.852,-9.175 5.558,-12.704 3.705,-3.529 8.292,-5.293 13.762,-5.293 5.293,0 9.793,1.764 13.498,5.293 3.705,3.53 5.558,7.764 5.558,12.704 0,5.47 -1.853,10.058 -5.558,13.763 -3.529,3.705 -8.028,5.558 -13.498,5.558 z M 1058.18,256.07 c -9.89,0 -18.8,-2.382 -26.74,-7.146 -7.76,-4.941 -13.14,-10.587 -16.14,-16.939 l -0.53,21.438 H 987.245 V 58.894 h 28.055 v 74.901 l -1.32,20.644 c 3,-7.058 8.82,-13.057 17.46,-17.998 8.83,-5.117 18.35,-7.675 28.59,-7.675 12,0 22.41,2.735 31.23,8.205 9,5.293 15.88,12.792 20.64,22.496 4.77,9.528 7.15,20.644 7.15,33.348 0,12.88 -2.82,24.084 -8.47,33.612 -5.47,9.528 -12.88,16.851 -22.23,21.968 -9.18,5.116 -19.23,7.675 -30.17,7.675 z m -4.77,-23.82 c 11.47,0 20.29,-3.617 26.47,-10.851 6.17,-7.411 9.26,-16.939 9.26,-28.584 0,-11.822 -3.09,-21.35 -9.26,-28.584 -6,-7.411 -14.82,-11.116 -26.47,-11.116 -10.06,0 -18.52,3.529 -25.41,10.587 -6.88,6.881 -10.32,15.968 -10.32,27.26 v 1.853 c 0,7.587 1.59,14.38 4.77,20.379 3.35,5.999 7.67,10.675 12.96,14.027 5.47,3.353 11.47,5.029 18,5.029 z m 95.33,-100.308 h 28.58 v 23.82 c 2.83,-8.117 7.41,-14.645 13.77,-19.585 6.35,-4.941 13.58,-7.411 21.7,-7.411 5.65,0 9.53,0.529 11.64,1.588 l -3.97,28.848 c -1.58,-1.058 -5.02,-1.588 -10.32,-1.588 -8.29,0 -15.88,2.647 -22.76,7.94 -6.7,5.294 -10.06,13.763 -10.06,25.408 v 62.461 h -28.58 z m 153.34,124.128 c -14.47,0 -26.55,-2.823 -36.26,-8.469 -9.7,-5.823 -16.85,-13.498 -21.44,-23.026 -4.58,-9.705 -6.88,-20.291 -6.88,-31.76 0,-12.88 2.65,-24.173 7.94,-33.877 5.47,-9.705 12.97,-17.115 22.5,-22.232 9.53,-5.293 20.29,-7.94 32.29,-7.94 18.7,0 32.55,5.205 41.55,15.615 9.18,10.234 13.76,24.702 13.76,43.405 0,4.764 -0.26,9.705 -0.79,14.821 h -87.34 c 1.94,10.764 5.73,18.527 11.38,23.291 5.82,4.764 13.85,7.146 24.08,7.146 8.47,0 15.44,-0.706 20.91,-2.117 5.47,-1.412 10.5,-3.353 15.09,-5.823 l 8.73,20.379 c -4.41,2.823 -10.41,5.293 -17.99,7.411 -7.59,2.117 -16.77,3.176 -27.53,3.176 z m 25.67,-73.312 c 0.18,-10.94 -2.2,-18.615 -7.14,-23.026 -4.94,-4.588 -12,-6.881 -21.18,-6.881 -18.52,0 -29.2,9.969 -32.02,29.907 z"
         id="path2" /><path
         fill="#82b4fe"
         fill-rule="evenodd"
         d="M 91.32,0.578 C 41.994,0.258 1.624,37.59 1.323,83.793 c -0.266,40.912 19.964,60.885 41.871,82.513 15.273,15.078 31.36,30.96 41.885,55.302 0.71,0.577 1.185,0.962 1.389,1.144 a 5.164,5.164 0 0 0 3.398,1.286 5.172,5.172 0 0 0 3.416,-1.241 c 0.055,-0.049 0.156,-0.092 0.28,-0.145 0.34,-0.146 0.857,-0.368 1.124,-0.983 10.49,-24.11 26.806,-39.778 42.388,-54.74 22.189,-21.307 42.888,-41.184 43.153,-81.972 C 180.528,38.753 140.647,0.9 91.32,0.578 Z m -0.86,132.349 c 24.424,0.159 44.356,-19.81 44.517,-44.602 0.161,-24.792 -19.509,-45.019 -43.934,-45.178 -24.425,-0.159 -44.356,19.81 -44.518,44.602 -0.161,24.792 19.509,45.019 43.934,45.178 z"
         clip-rule="evenodd"
         id="path3" /><path
         fill="#fff"
         fill-rule="evenodd"
         d="m 58.49,238.338 c -4.075,-0.027 -7.408,4.48 -7.444,10.065 l -0.184,28.269 c -0.037,5.585 3.237,10.134 7.313,10.161 l 62.385,0.406 c 4.075,0.026 7.408,-4.48 7.444,-10.065 l 0.184,-28.269 c 0.037,-5.586 -3.237,-10.135 -7.313,-10.161 z"
         clip-rule="evenodd"
         id="path4"
         style="fill:#285daa;fill-opacity:1" /></g></g><defs
     id="defs6"><clipPath
       id="a"><path
         fill="#ffffff"
         d="M 0,0 H 1356 V 318 H 0 Z"
         id="path5" /></clipPath><clipPath
       id="b"><path
         fill="#ffffff"
         d="M 0,0 H 1355.33 V 317.795 H 0 Z"
         id="path6" /></clipPath></defs></svg>
