<?xml version="1.0" encoding="utf-8"?>
<!-- Generator: Adobe Illustrator 14.0.0, SVG Export Plug-In . SVG Version: 6.00 Build 43363)  -->
<!DOCTYPE svg PUBLIC "-//W3C//DTD SVG 1.1//EN" "http://www.w3.org/Graphics/SVG/1.1/DTD/svg11.dtd">
<svg version="1.1" id="Calque_1" xmlns="http://www.w3.org/2000/svg" xmlns:xlink="http://www.w3.org/1999/xlink" x="0px" y="0px"
	 width="140.5px" height="70.5px" viewBox="0 0 140.5 70.5" enable-background="new 0 0 140.5 70.5" xml:space="preserve">
<path fill-rule="evenodd" clip-rule="evenodd" fill="#AF0084" d="M123.569,19.761c0.252-2.185,0.422-4.905,1.277-6.774
	c0.645,1.941,0.862,4.45,2.188,5.909c1.715-0.405,3.634-0.307,5.405,0.074c-1.064,1.395-3.366,2.354-4.748,3.252
	c1.663,1.396,2.473,3.032,3.379,4.969c-2.406-0.046-4.613-2.143-6.474-3.272c-1.605,1.807-2.727,3.567-5.08,4.223
	c0.847-1.807,2.832-3.371,3.077-5.248c-1.875-0.701-4.207-2.201-5.426-3.724C119.103,19.286,121.63,19.534,123.569,19.761"/>
<path fill-rule="evenodd" clip-rule="evenodd" fill="#98C000" d="M124.699,33.599c0.184-1.585,0.308-3.559,0.928-4.915
	c0.469,1.408,0.627,3.229,1.588,4.288c1.244-0.294,2.636-0.224,3.921,0.053c-0.771,1.013-2.442,1.709-3.444,2.36
	c1.206,1.014,1.795,2.2,2.452,3.606c-1.746-0.034-3.348-1.555-4.698-2.374c-1.165,1.311-1.978,2.589-3.687,3.063
	c0.615-1.311,2.056-2.446,2.234-3.808c-1.361-0.508-3.054-1.597-3.938-2.703C121.459,33.256,123.292,33.436,124.699,33.599"/>
<path fill-rule="evenodd" clip-rule="evenodd" fill="#F08400" d="M119.213,44.533c0.126-1.096,0.212-2.46,0.641-3.398
	c0.323,0.974,0.433,2.232,1.099,2.964c0.86-0.203,1.822-0.154,2.71,0.038c-0.534,0.699-1.688,1.181-2.381,1.63
	c0.834,0.701,1.241,1.521,1.694,2.492c-1.206-0.021-2.313-1.074-3.247-1.641c-0.805,0.907-1.367,1.79-2.549,2.119
	c0.425-0.906,1.421-1.691,1.545-2.633c-0.94-0.352-2.111-1.104-2.723-1.869C116.973,44.295,118.24,44.419,119.213,44.533"/>
<path fill-rule="evenodd" clip-rule="evenodd" fill="#005FAD" d="M29.431,43.843c-0.999,0-12.267,11.046-13.439,12.341
	c-0.918,1.016-1.423,2.901-2.995,3.111c-1.682,0.226-2.062-0.427-2.867-1.69c-0.765-1.199-1.694-3.332-0.353-4.198
	c1.286-0.829,17.256-15.489,17.812-16.053c0.622-0.631-0.062-2.205-0.359-4.572c-0.382-3.043-0.576-5.829-0.342-8.837
	c0.239-3.088,0.979-6.903,1.785-9.895c0.493-1.833,0.208-5.449,2.756-5.555c0.521,0.123,4.453,2.84,3.387,6.416
	c-1.529,5.126-2.997,10.949-2.551,16.38c0.087,1.056,0.514,1.978,1.191,1.494c7.246-5.181,18.628-10.835,21.53-11.764
	c1.396-0.446,2.827-0.794,4.281-0.976c1.037,0.123,1.834,1.095,2.647,1.792c4.112,3.525-3.869,15.966-4.547,19.805
	c0.639,0,1.333-0.968,2.547-2.073c1.299-1.179,3.318-3.04,4.81-4.477c2.279-1.708,4.272-3.282,7.165-3.65
	c6.946-0.882,4.873,9.124,3.304,12.747c0.897,0,3.091-2.52,4.843-4.177c0.883-0.837,1.857-1.717,2.749-2.543
	c1.055-0.974,1.551-1.482,2.353-1.094c0.536,0.154,2.858,1.557,2.992,3.706c0.109,1.741-0.605,3.447-0.955,5.125
	c-0.291,1.399-0.219,5.95,1.669,5.965c0.745-0.538,1.723-0.769,2.608-0.917c1.428-0.242,1.356,0.222,2.541,0.662
	c1.847,0.687,0.181,3.314-0.792,4.278c-1.312,1.3-3.184,2.159-5.046,2.129c-2.058-0.035-3.685-1.296-4.611-3.078
	c-0.507-0.977-1.158-4.584-1.414-5.651c-0.252-1.053-0.033-2.314-1.147-1.241c-3.146,3.034-6.395,5.854-9.597,8.838
	c-3.527,3.288-6.898-1.233-6.256-4.915c0.631-3.607,3.747-8.021,4.314-11.585c-1.488,0-4.003,2.602-4.947,3.668
	c-1.541,1.74-3.253,3.666-4.991,5.496c-1.748,1.841-3.247,3.528-5.006,5.364c-1.271,1.324-2.72,3.195-4.864,3.315
	c-1.05-0.166-2.734-1.915-3.016-4.146c-0.236-1.862,0.235-3.91,0.948-5.623c2.062-4.952,7.711-15.356,9.034-20.616
	c-2.711,0.261-14.151,5.567-21.829,11.886c-2.197,1.809-0.169,5.132,0.751,7.336c0.985,2.362,3.887,6.629,4.765,7.356
	c2.284,1.893,0.459,3.565-1.799,3.435c-0.959-0.679-2.119-1.408-3.02-2.309c-0.978-0.976-1.822-2.09-2.593-3.232
	C31.318,49.312,29.829,46.639,29.431,43.843"/>
<path fill-rule="evenodd" clip-rule="evenodd" fill="#005FAD" d="M110.703,14.171c-0.646-2.394-3.639,1.258-5.142,3.193
	c-4.147,5.338-7.926,16.188-8.538,18.204c-1.861,6.138-2.575,13.732,1.442,19.126c2.344,3.146,6.464,3.392,10.49,2.232
	c2.082-0.599,4.173-2.086,4.881-3.717c0.588-1.352,0.893-3.873-2.077-1.954c-1.15,0.744-3.26,1.564-7.039,1.499
	c-1.271-0.021-3.346-1.838-3.911-3.715c-0.984-3.058-0.565-7.154-0.565-7.154c0.86-5.285,3.306-11.033,5.46-15.812
	c0.835-1.849,3.379-6.469,4.325-7.945C110.029,18.129,111.254,16.21,110.703,14.171z"/>
</svg>
